<svg xmlns="http://www.w3.org/2000/svg" viewBox="0 0 266.39 93.55">
  <path d="M108.7 69.29l8.73-4.58c4.25 7.47 10.81 9 18.15 7.14 2.26-.58 5.88-1.48 5.88-5.21s-3.22-4.63-5.41-5.5c-3.48-1.39-7.68-1-11.16-2.35-4.18-1.66-8.74-3.67-11.67-6.87-4.29-4.68-2.86-12.7 1.75-17.25 8.3-8.21 30.62-7.64 36 5.5l-8.26 4.35c-4.12-4.39-9.13-6.65-14.86-5.09-2.29.62-6 2.31-6 5s3.56 3.82 5.74 4.53c3.92 1.27 8.21 1.36 12.23 2.39 8.47 2.17 12.4 6.94 12.49 14.6s-3.83 12.69-11.84 15.29c-12.91 4.19-25.8.1-31.08-9.88a14.54 14.54 0 0 1-.69-2.07zM34.52 33.17c-.82-1.68-5.39-2-8.23-2.06a6.35 6.35 0 0 0-4.85 2.8c-3.51 7-6.56 14.18-9.76 21.31C7.87 63.68 4.09 72.14 0 81.29a88.87 88.87 0 0 0 9.56-.11c1.2-.14 3-1.29 3.26-2.3 1.59-6.41 5.93-7.42 11.62-6.82a48.79 48.79 0 0 0 10.47 0c4.15-.46 6.67 1 7.71 5 .91 3.49 3.08 4.73 6.6 4.32a69.21 69.21 0 0 1 7.33 0C49 64.51 42.07 48.68 34.52 33.17zM20.67 61.53l7.61-17.27 7.47 17.27H20.67zm81.71-23.34L95.54 45c-4.73-3.95-10.42-5.73-16.46-3.85A18 18 0 0 0 71 46.53c-4.91 5.91-4.16 15.79 1 21.13 5.65 5.86 15 5.75 23.73-.34l7 7.29c-9.14 10.15-28.41 10.66-38.44.77s-9.8-28.52.42-38.38 28.08-9.38 37.67 1.19zm62.69-7.09h10.21V81h-10.21V31.1zM193 66.73c10.09 2.51 18.75 6 25.62 14.66h-28zm37.86 14.49c7-7.88 15.56-11.53 25.33-14.38l2.41 14.38h-27.74zm-8.73-57.39c-2.14 2.23-4.19 4.56-6.46 6.64-.83.77-2.35 1.56-3.28 1.31-4.3-1.16-8.51-2.68-13-4.18l.91-5.94c6.61 0 13.23-.06 19.84.1.64 0 1.24 1.45 1.87 2.22z"/>
  <path d="M252.21 34c-1.56-2.79-3.45-3.28-6.1-2.7-3.52.77-7 1.62-10.53 2.44l-.31-1 14.73-5.2-1.34-6.05h-15.18L223 0l-1.33.56c3 7.8 6.07 15.6.3 23.44l.18-.17a16.06 16.06 0 0 1-1.72 3.49c-10.71 12.75-10.07 26-2.23 39.86.83 1.47.11 3.81.11 5.75-7.58-9.23-17-14.17-27.68-17.43 2.89-6.71 5.72-12.91 8.22-19.25 1.08-2.76 2.79-3.45 5.39-3l8.26 1.49.26-1.37c-4-.78-8-1.67-12-2.24a3.56 3.56 0 0 0-2.76 1.49c-5.2 8.47-10.27 17-15.42 25.66 5.16 1.69 10 2.9 14.54 4.88a54.38 54.38 0 0 1 12.52 7.15 58.82 58.82 0 0 1 9.92 11c2.79 3.81 4.88 8.13 7.28 12.23-4.31-14.37-3.91-18.19 5-30.42 4.4-6 5.71-12.65 5.07-19.84-.22-2.46-.67-4.89-1.11-8a93.71 93.71 0 0 1 10.2-1.91 4.72 4.72 0 0 1 3.76 2.13c3.1 6.55 5.86 13.26 8.81 20.06-13.51 4.19-24.43 10.81-30 23.65 5.63-4.47 10.82-9.72 17-13.21 6.34-3.58 13.65-5.45 20.8-8.16-4.69-7.84-9.63-15.76-14.16-23.84zm-31.63 32.82c-6.3-11-1-23.21 8.92-39.74 6.21 15.68-3.05 27.16-8.92 39.74z"/>
</svg>
