<?xml version="1.0" standalone="no"?>
<!DOCTYPE svg PUBLIC "-//W3C//DTD SVG 20010904//EN"
 "http://www.w3.org/TR/2001/REC-SVG-20010904/DTD/svg10.dtd">
<svg version="1.0" xmlns="http://www.w3.org/2000/svg"
 width="16.000000pt" height="16.000000pt" viewBox="0 0 16.000000 16.000000"
 preserveAspectRatio="xMidYMid meet">
<metadata>
Created by potrace 1.11, written by Peter Selinger 2001-2013
</metadata>
<g transform="translate(0.000000,16.000000) scale(0.003200,-0.003200)"
fill="#000000" stroke="none">
<path d="M823 4900 c-147 -84 -182 -266 -106 -550 26 -100 77 -236 124 -334
16 -33 27 -61 26 -63 -3 -2 -152 250 -167 282 -3 6 -32 57 -65 113 l-59 103
-20 -38 c-30 -57 -29 -211 3 -313 25 -81 129 -345 162 -413 l20 -42 -35 40
c-70 80 -185 294 -226 420 -13 39 -26 73 -30 77 -16 19 -19 -158 -4 -252 46
-294 267 -642 649 -1023 l80 -79 -85 61 c-47 34 -107 81 -135 104 -49 41 -205
197 -235 233 -57 70 -90 115 -90 121 -1 4 -12 22 -26 38 l-26 30 7 -60 c30
-258 151 -471 433 -759 95 -97 96 -98 47 -71 -78 45 -225 143 -275 184 -69 57
-72 56 -42 -6 90 -189 225 -355 372 -455 l25 -17 -51 0 c-28 -1 -71 6 -94 14
-39 14 -42 14 -35 -3 4 -9 13 -31 19 -47 23 -62 71 -132 133 -192 l64 -62 -66
5 c-79 6 -80 2 -24 -83 42 -65 99 -120 152 -148 32 -16 32 -16 -35 -10 -38 3
-68 2 -68 -3 0 -15 85 -90 127 -111 22 -11 60 -23 82 -27 23 -4 41 -10 41 -15
0 -5 -4 -9 -10 -9 -5 0 -25 -11 -45 -24 l-36 -24 33 -31 c50 -48 115 -75 175
-76 29 0 53 -2 53 -5 0 -3 -16 -16 -35 -30 -19 -14 -35 -29 -35 -33 0 -10 80
-44 122 -52 58 -10 126 -12 175 -5 l48 8 -50 -44 c-27 -24 -45 -44 -40 -45 6
0 19 -3 30 -5 68 -16 171 -11 250 13 20 5 20 5 0 -18 -56 -65 -57 -63 20 -55
39 3 96 9 128 12 l59 6 56 -58 c53 -56 56 -61 53 -106 -4 -93 -53 -195 -139
-290 -58 -64 -96 -82 -170 -80 -36 1 -67 4 -70 7 -10 9 -58 -27 -80 -61 -26
-40 -24 -41 20 -14 34 21 112 28 122 11 4 -5 -7 -12 -24 -16 -41 -9 -87 -57
-93 -97 -2 -18 -3 -34 -2 -36 2 -2 19 12 38 30 19 19 50 38 68 44 43 13 120 8
164 -10 34 -15 79 -72 69 -88 -3 -4 -1 -8 5 -8 16 0 29 32 25 64 -1 16 -14 44
-27 63 -27 37 -26 62 3 88 25 22 52 13 108 -39 l45 -41 -22 43 c-27 54 -34
121 -15 158 18 34 61 73 131 120 83 55 84 55 78 -12 -19 -224 -26 -257 -68
-309 -45 -57 -72 -76 -142 -100 -118 -39 -171 -92 -155 -155 l6 -25 19 33 c22
37 86 72 133 72 l31 0 -13 -33 c-17 -40 -13 -94 8 -115 15 -15 16 -14 16 6 0
60 59 114 100 92 23 -12 49 -65 51 -102 1 -22 1 -22 8 2 13 43 3 112 -23 151
-23 34 -24 49 -4 49 4 0 8 -8 8 -19 0 -35 79 -110 154 -146 116 -55 126 -58
126 -36 0 17 5 17 53 -9 96 -53 185 -71 362 -76 l160 -4 -25 21 c-14 12 -38
32 -55 45 l-30 24 72 0 c49 0 98 8 153 26 87 27 87 28 65 86 -4 10 6 14 36 15
88 4 216 48 248 87 11 13 6 17 -36 30 -27 8 -39 15 -28 17 94 9 131 18 176 42
41 22 129 103 129 119 0 4 -13 9 -30 9 -16 1 -39 3 -50 4 -11 1 -25 3 -32 4
-7 0 21 23 61 50 154 102 211 186 144 212 -14 5 -116 11 -227 14 -162 3 -216
7 -280 24 -98 26 -228 90 -325 161 l-74 54 64 21 c82 28 159 67 182 93 19 20
18 21 -21 41 -55 28 -58 37 -14 45 64 10 154 60 201 111 38 41 41 49 27 57 -8
5 -22 8 -28 7 -7 -1 -29 -1 -48 0 -35 1 -35 1 25 30 70 35 113 71 149 125 32
48 33 60 2 52 -12 -3 -41 -8 -62 -12 -21 -3 -43 -8 -49 -11 -11 -5 13 17 82
74 41 33 123 144 123 165 0 7 -26 8 -68 4 l-69 -5 69 69 c48 48 79 90 103 142
19 40 35 78 35 85 0 13 -24 8 -107 -26 -29 -11 -53 -19 -53 -17 0 2 30 23 67
46 230 149 425 367 532 593 44 95 105 287 83 262 -4 -5 -44 -53 -88 -105 -128
-154 -300 -321 -405 -394 -105 -71 -134 -85 -72 -33 308 258 548 574 618 812
20 69 35 170 24 158 -4 -4 -35 -43 -68 -87 -120 -157 -319 -363 -511 -530
-101 -87 -115 -93 -40 -16 146 150 338 393 406 515 102 182 151 320 161 454 3
49 3 101 -1 117 -7 26 -11 20 -65 -82 -121 -228 -204 -346 -354 -499 -98 -99
-98 -99 -37 -25 81 99 173 236 220 329 39 78 89 193 96 220 46 186 58 259 57
356 -1 103 -2 103 -36 20 -29 -69 -67 -145 -137 -270 -92 -165 -302 -438 -453
-590 -57 -57 -55 -54 41 75 481 651 607 985 502 1333 -11 37 -24 67 -28 67 -4
0 -23 -37 -42 -83 -37 -89 -180 -378 -231 -467 -98 -173 -217 -352 -313 -470
-95 -117 -500 -515 -866 -852 -191 -175 -267 -282 -305 -428 -16 -60 -21 -166
-11 -215 3 -11 5 -26 5 -33 1 -7 24 -36 51 -63 56 -56 94 -123 111 -196 14
-61 17 -185 7 -243 -5 -25 -11 -60 -14 -79 -3 -19 -10 -45 -15 -58 l-9 -23
-64 34 c-35 19 -116 68 -180 110 -65 42 -119 76 -121 76 -2 0 -24 14 -49 31
-70 47 -206 107 -259 114 -27 4 -62 2 -82 -5 -33 -11 -40 -9 -73 13 -164 109
-228 279 -165 437 14 36 37 79 49 96 111 145 118 418 17 644 -105 236 -266
494 -516 829 -154 206 -234 330 -292 455 -34 73 -74 176 -80 206 -10 50 -18
124 -16 158 1 23 -1 42 -6 42 -4 0 -31 -14 -60 -30z"/>
</g>
</svg>
