<svg xmlns="http://www.w3.org/2000/svg" viewBox="0 0 24 28">
  <path d="M12 2c6.625 0 12 5.375 12 12s-5.375 12-12 12S0 20.625 0 14 5.375 2 12 2zm4.28 8.14c-.124.095-.202.267-.358.298.078-.016.156-.297.203-.36.094-.108.22-.17.344-.233.265-.11.53-.14.81-.187.267-.063.595-.063.798.172-.047-.047.328-.375.375-.39.14-.08.375-.048.47-.188.03-.047.03-.344.03-.344-.266.03-.36-.22-.375-.438 0 .016-.03.063-.094.125.016-.234-.28-.063-.39-.094-.36-.093-.314-.343-.423-.608-.062-.14-.233-.187-.296-.328-.063-.094-.094-.297-.234-.313-.094-.015-.266.33-.297.314-.14-.078-.203.03-.313.094-.094.063-.172.03-.266.078.28-.094-.125-.25-.266-.22.22-.062.11-.296-.016-.405h.078c-.03-.14-.47-.265-.61-.358s-.89-.25-1.046-.156c-.187.11.047.422.047.578.017.187-.186.234-.186.39 0 .267.5.22.375.58-.08.218-.376.265-.5.437-.126.157.015.44.14.548.125.094-.22.25-.266.28-.266.126-.47-.265-.53-.5-.048-.17-.064-.374-.25-.468-.095-.03-.392-.078-.454.016-.094-.234-.422-.328-.64-.406-.314-.11-.58-.11-.907-.063.11-.016-.03-.5-.297-.422.078-.156.047-.328.078-.484.03-.124.094-.25.187-.358.032-.063.376-.422.267-.438.266.03.562.047.78-.172.142-.14.204-.375.345-.53.203-.235.453.062.672.077.313.015.297-.33.125-.485.202.016.03-.36-.08-.406-.14-.048-.67.093-.39.202-.063-.03-.438.75-.656.36-.063-.08-.094-.407-.234-.423-.125 0-.203.14-.25.233.078-.203-.438-.344-.547-.36.234-.155.047-.327-.125-.42-.125-.08-.516-.142-.625-.017-.297.36.313.406.47.5.046.03.233.14.124.22-.094.046-.375.124-.406.186-.093.14.11.297-.03.438-.14-.14-.14-.375-.25-.53.14.17-.562.077-.547.077-.234 0-.61.156-.78-.078-.032-.064-.032-.423.062-.345-.14-.11-.234-.22-.328-.28-.516.17-1 .39-1.47.64.064.016.11.016.188-.016.125-.048.234-.126.36-.188.155-.063.483-.25.655-.11.016-.03.063-.062.078-.077.11.125.22.25.313.39-.124-.062-.327-.03-.468-.015-.11.03-.297.063-.344.187.047.078.11.203.078.28-.203-.14-.36-.374-.64-.405-.126 0-.25 0-.345.016-1.5.828-2.765 2.03-3.67 3.47.062.062.124.108.186.124.156.047 0 .5.297.266.094.078.11.187.047.297.016-.016.64.39.688.422.11.094.28.203.328.328.03.11-.063.234-.156.28-.016-.03-.25-.265-.28-.202-.048.078 0 .5.17.484-.25.016-.14.984-.202 1.172 0 .015.03.015.03.015-.046.187.11.922.423.844-.202.046.36.765.44.81.202.142.437.235.577.44.156.218.156.546.375.718-.063.187.328.406.313.672-.03.016-.047.016-.078.03.078.22.375.22.484.423.064.125 0 .422.204.36.03-.345-.203-.69-.375-.97-.095-.156-.188-.297-.267-.453-.078-.14-.094-.313-.156-.47.063.017.406.142.375.188-.125.313.5.86.672 1.062.047.047.406.516.22.516.202 0 .483.313.577.47.142.233.11.53.204.78.094.313.53.453.78.594.22.11.407.266.626.344.328.125.406.016.688-.03.406-.064.453.39.78.56.204.11.642.267.86.173-.094.03.328.672.36.72.14.186.405.28.56.468.048-.03.095-.078.11-.14-.063.17.234.5.39.468.173-.03.22-.375.22-.5-.313.156-.594.03-.766-.28-.03-.08-.28-.517-.063-.517.296 0 .093-.234.062-.453s-.25-.36-.36-.547c-.093.187-.405.14-.5-.016 0 .047-.046.125-.046.187-.078 0-.156.016-.234-.016.03-.186.047-.42.094-.624.078-.28.594-.828-.078-.797-.234.015-.328.108-.406.312-.078.187-.047.36-.266.453-.14.063-.61.03-.75-.047-.297-.172-.5-.72-.5-1.03-.016-.423.203-.798 0-1.19.094-.077.187-.233.297-.312.094-.063.203.047.25-.14-.047-.032-.11-.095-.125-.095.234.11.672-.155.875 0 .125.095.266.126.344-.03.016-.047-.11-.234-.047-.36.047.267.22.314.453.142.094.094.344.063.516.156.17.11.202.28.405.047.125.187.14.187.187.375.047.172.14.61.297.688.327.203.25-.344.218-.53-.016-.017-.016-.532-.03-.532-.5-.11-.314-.5-.032-.766.047-.03.406-.156.562-.28.14-.126.313-.345.234-.548.078 0 .14-.063.172-.14-.047-.017-.234-.173-.266-.157.11-.063.094-.156.03-.25.157-.094.08-.266.235-.328.172.234.516-.03.344-.22.156-.218.516-.108.61-.312.233.063.062-.234.186-.406.11-.142.297-.142.438-.22 0 .016.392-.22.267-.234.266.03.797-.25.39-.484.064-.14-.14-.203-.28-.234.11-.03.25.03.344-.03.204-.142.064-.204-.108-.25-.22-.064-.5.077-.672.186zm-2.546 13.704c2.14-.375 4.047-1.437 5.484-2.953-.094-.093-.266-.062-.39-.124-.126-.047-.22-.094-.376-.125.03-.312-.313-.42-.53-.577-.204-.156-.33-.328-.626-.266-.03.016-.344.125-.28.187-.204-.172-.298-.266-.563-.344-.25-.078-.422-.39-.672-.11-.124.126-.062.314-.124.44-.203-.173.187-.376.03-.563-.186-.22-.515.14-.67.234-.095.08-.204.11-.267.204-.08.11-.11.25-.173.36-.047-.126-.313-.095-.328-.188.062.375.062.766.14 1.14.047.22 0 .58-.187.75s-.422.36-.453.626c-.03.187.016.36.187.406.016.234-.25.406-.234.656 0 .016.016.172.03.25z"/>
</svg>
