<svg xmlns="http://www.w3.org/2000/svg" viewBox="0 0 241.74 107.57">
  <path fill="#202f67" fill-rule="evenodd" d="M164.75 87.83h22.07V50.82h32.85v37.01h22.07V0h-22.07v31.58h-32.85V0h-22.07v87.83M38.4 52.14s-13.92-3.22-18-4.3C13.86 46.13.05 42.27.05 28.44.05 8.95 20.08 0 34.11 0 50 0 70.86 7.53 70.86 27.33l-19 .06c0-8.67-10.05-10.53-16.62-10.53C29.65 16.85 21 20 21 25.38c0 4.45 1.88 7.62 18.55 11.22 11.7 2.55 30.84 6.4 31.18 23.73.34 17.18-16.41 27.8-34 27.75C20.82 88 0 80.54 0 60.75l18.93-.05c.32 8.71 9.72 10.53 16.68 10.53 5.61 0 13.56-2.28 14.21-7.81.49-4.16-.95-8.77-11.42-11.27zM0 103.52l2.32-.23a2.83 2.83 0 0 0 .84 1.71 2.58 2.58 0 0 0 1.73.55 2.65 2.65 0 0 0 1.73-.48 1.46 1.46 0 0 0 .59-1.14 1 1 0 0 0-.21-.71 1.91 1.91 0 0 0-.85-.52q-.42-.14-1.91-.51A6.46 6.46 0 0 1 1.51 101a3.07 3.07 0 0 1-1.08-2.35A3 3 0 0 1 .93 97a3.22 3.22 0 0 1 1.47-1.2 5.93 5.93 0 0 1 2.33-.41 5 5 0 0 1 3.34 1 3.43 3.43 0 0 1 1.18 2.6L6.87 99a2 2 0 0 0-.66-1.3 2.36 2.36 0 0 0-1.5-.4 2.72 2.72 0 0 0-1.63.43.86.86 0 0 0-.38.73.9.9 0 0 0 .35.72 6.26 6.26 0 0 0 2.19.79 11.26 11.26 0 0 1 2.57.85 3.24 3.24 0 0 1 1.3 1.2 3.69 3.69 0 0 1-.11 3.8 3.4 3.4 0 0 1-1.59 1.32 6.74 6.74 0 0 1-2.57.43 5.12 5.12 0 0 1-3.44-1 4.51 4.51 0 0 1-1.43-3H0zM13.12 107.36v-11.8h8.74v2H15.5v2.61h5.92v1.99H15.5v3.21h6.59v1.99h-8.97M25.09 107.36v-11.8h2.38v5.24l4.82-5.24h3.2l-4.44 4.6 4.68 7.2h-3.08l-3.24-5.53-1.94 1.97v3.56h-2.38M37.5 101.54a7.51 7.51 0 0 1 .54-3 5.6 5.6 0 0 1 1.09-1.62 4.64 4.64 0 0 1 1.53-1.06 6.49 6.49 0 0 1 2.54-.47A5.53 5.53 0 0 1 47.37 97a7.23 7.23 0 0 1 0 9 5.5 5.5 0 0 1-4.15 1.61 5.56 5.56 0 0 1-4.18-1.6 6.11 6.11 0 0 1-1.55-4.43zm2.45-.08a4.44 4.44 0 0 0 .92 3 3 3 0 0 0 2.35 1 3 3 0 0 0 2.33-1 4.51 4.51 0 0 0 .92-3.08 4.42 4.42 0 0 0-.89-3 3.29 3.29 0 0 0-4.73 0 4.44 4.44 0 0 0-.9 3zM51.87 107.36v-11.7h2.39v9.71h5.92v1.99h-8.31M74.75 107.36h-2.59l-1-2.68h-4.74l-1 2.68h-2.5l4.6-11.8H70l4.72 11.8zm-4.39-4.67l-1.63-4.38-1.59 4.38h3.22zM76.93 107.36v-11.8h2.38v4.65h4.66v-4.65h2.39v11.8h-2.39v-5.16h-4.66v5.16h-2.38M100.27 95.56h4.35a8.51 8.51 0 0 1 2.25.23 4 4 0 0 1 1.78 1.09 5.16 5.16 0 0 1 1.13 1.92 8.67 8.67 0 0 1 .39 2.78 7.75 7.75 0 0 1-.36 2.51 5.2 5.2 0 0 1-1.26 2.08 4.19 4.19 0 0 1-1.67.94 7.2 7.2 0 0 1-2.11.25h-4.48v-11.8zm2.38 2v7.81h1.78a6.47 6.47 0 0 0 1.44-.11 2.16 2.16 0 0 0 1-.49 2.47 2.47 0 0 0 .63-1.13 7.73 7.73 0 0 0 .24-2.17 7 7 0 0 0-.24-2.1 2.7 2.7 0 0 0-.68-1.14 2.27 2.27 0 0 0-1.1-.56 10.87 10.87 0 0 0-2-.11h-1.07zM114.02 107.36v-11.8h2.38v11.8h-2.38M131.11 107.36h-2.59l-1-2.68h-4.72l-1 2.68h-2.53l4.59-11.8h2.52l4.72 11.8zm-4.39-4.67l-1.63-4.38-1.59 4.38h3.22zM133.51 107.36v-11.8h2.31l4.83 7.88v-7.88h2.22v11.8h-2.4l-4.75-7.69v7.69h-2.21M154.23 107.36v-11.8h2.38v4.65h4.67v-4.65h2.38v11.8h-2.38v-5.16h-4.67v5.16h-2.38M177.88 107.36h-2.59l-1-2.68h-4.72l-1 2.68H166l4.59-11.8h2.52l4.72 11.8zm-4.39-4.67l-1.63-4.38-1.59 4.38h3.22zM179.68 107.36v-11.8h5a8.43 8.43 0 0 1 2.74.32 2.69 2.69 0 0 1 1.39 1.12 3.4 3.4 0 0 1 .52 1.86 3.16 3.16 0 0 1-.78 2.2 3.76 3.76 0 0 1-2.33 1.09 5.47 5.47 0 0 1 1.27 1 13.2 13.2 0 0 1 1.36 1.92l1.44 2.3h-2.85l-1.72-2.57a16.13 16.13 0 0 0-1.26-1.73 1.77 1.77 0 0 0-.72-.49 3.82 3.82 0 0 0-1.2-.14h-.48v4.92h-2.38zm2.38-6.81h1.76a9.08 9.08 0 0 0 2.14-.15 1.28 1.28 0 0 0 .67-.5 1.54 1.54 0 0 0 .24-.89 1.39 1.39 0 0 0-.32-1 1.43 1.43 0 0 0-.89-.47h-3.6v3zM203.92 107.36h-2.59l-1-2.68h-4.72l-1 2.68h-2.53l4.59-11.8h2.52l4.72 11.8zm-4.39-4.67l-1.63-4.38-1.59 4.38h3.22zM206.51 107.36v-11.8h3.82a13.88 13.88 0 0 1 2.83.18 3.09 3.09 0 0 1 1.7 1.16 3.64 3.64 0 0 1 .68 2.29 3.85 3.85 0 0 1-.39 1.83 3.25 3.25 0 0 1-1 1.17 3.43 3.43 0 0 1-1.23.56 13.57 13.57 0 0 1-2.47.17h-1.55v4.45h-2.38zm2.38-9.8v3.35h1.3a6.17 6.17 0 0 0 1.88-.18 1.54 1.54 0 0 0 .74-.58 1.57 1.57 0 0 0 .27-.92 1.52 1.52 0 0 0-.38-1.06 1.65 1.65 0 0 0-1-.52 11.48 11.48 0 0 0-1.71-.08h-1.15zM230 107.36h-2.59l-1-2.68h-4.72l-1 2.68h-2.53l4.59-11.8h2.52l4.72 11.8zm-4.39-4.67L224 98.32l-1.59 4.38h3.22zM232.38 107.36v-11.8h2.32l4.83 7.88v-7.88h2.21v11.8h-2.39l-4.75-7.69v7.69h-2.22M111.21 18.53h-8.79v51.61h6.69c11.64-.25 25.41-.87 25.41-26.12 0-6.09-.62-12.19-4.58-17.66-5.94-8-12-7.84-18.72-7.84zM80.37 87.8V0h27.87c10.65.12 24.41.37 35.56 10.32 9 8.21 12.51 20.52 12.51 32.83a59 59 0 0 1-2.23 16.91C146 87.18 124 87.68 114.8 87.8H80.37z"/>
</svg>
