<svg xmlns="http://www.w3.org/2000/svg" viewBox="0 0 250 250">
  <path fill="#273456" fill-rule="evenodd" d="M108.08 213.09a1.11 1.11 0 0 0 1 1.19l17.95 1.3h.08a1.11 1.11 0 0 0 .08-2.22l-17.95-1.3a1.12 1.12 0 0 0-1.16 1.03zm44.12 4.03L133.06 214a1.11 1.11 0 1 0-.35 2.2l19.15 3.08h.14a1.11 1.11 0 0 0 .2-2.16zm-15.05-6.01l19.15 3.08h.18a1.11 1.11 0 0 0 .18-2.21l-19.15-3.08a1.11 1.11 0 1 0-.36 2.21zm-23.03-1.84l17.95 1.3h.08a1.11 1.11 0 0 0 .08-2.22L114.28 207a1.11 1.11 0 0 0-.16 2.27zm-23.84-13.61a1.11 1.11 0 0 0 1 1.19 88.28 88.28 0 0 1 16.26 2.93 1.11 1.11 0 0 0 .63-2.14 89 89 0 0 0-16.73-3 1.12 1.12 0 0 0-1.16 1.02zm11.72 6.72a66.36 66.36 0 0 0-16.81-3 1.13 1.13 0 0 0-1.13 1.09 1.11 1.11 0 0 0 1.09 1.13 65.37 65.37 0 0 1 16.19 2.93 1.11 1.11 0 1 0 .66-2.15zm-8.27 5.4a89 89 0 0 0-16.73-3 1.11 1.11 0 1 0-.16 2.22 88.28 88.28 0 0 1 16.26 2.93 1.11 1.11 0 1 0 .63-2.15zm-6.5 7.36a1.11 1.11 0 0 0 .33-2.18 66.36 66.36 0 0 0-16.81-3 1.13 1.13 0 0 0-1.13 1.04 1.11 1.11 0 0 0 1.09 1.13 65.37 65.37 0 0 1 16.19 2.93 1.11 1.11 0 0 0 .33.08zM73.44 190.5l20.21.5a1.06 1.06 0 0 0 1.11-1 1.12 1.12 0 0 0-1.08-1.15l-20.22-.54a1.11 1.11 0 0 0-1.14 1.09 1.1 1.1 0 0 0 1.12 1.1zm-8.12 5.29L85.64 197h.07a1.11 1.11 0 0 0 .07-2.22l-20.32-1.23a1.11 1.11 0 1 0-.14 2.24zm-6.32 5.5l20.18.71a1.25 1.25 0 0 0 1.11-1.23 1.15 1.15 0 0 0-1.08-1.19L59 199a1.18 1.18 0 0 0-1.14 1.15 1.15 1.15 0 0 0 1.14 1.14zm-8.15 5.08l20.32 1.23h.07a1.11 1.11 0 0 0 .07-2.22L51 204.15a1.11 1.11 0 1 0-.15 2.22zm13.91 3.7l-20.22-.56a1.13 1.13 0 0 0-1.14 1.11 1.44 1.44 0 0 0 1.08 1.47l20.22.91a1.53 1.53 0 0 0 .06-2.93zm18.76 19.65a.83.83 0 1 0 1-1.36c-2.4-1.72-14.27-7.82-28.39-6.25a79.37 79.37 0 0 1-24.89-1.19.84.84 0 0 0-.4 1.62 81.23 81.23 0 0 0 25.48 1.23c13.55-1.52 24.9 4.3 27.2 5.95z"/>
  <path fill="#273456" fill-rule="evenodd" d="M89.62 230.88c7.07-6.24 22.71-2.93 22.87-2.89l42.56 6.12 43.56-41.37a.84.84 0 0 0-1.15-1.21l-43 40.81-41.67-6a50.25 50.25 0 0 0-9.14-.94c-6.8-.07-11.91 1.35-15.17 4.22a.84.84 0 0 0 1.14 1.26zm13.65-100.44c-4.74.29-5.25 4.74-1.11 4.1-1.73-.96-2.88-2.02 1.11-4.1z"/>
  <path fill="#273456" fill-rule="evenodd" d="M213.39 36.61q-2.11-2.11-4.29-4.1a48.06 48.06 0 0 0-.08-5.1c-.48 1.22-1 2.45-1.53 3.66Q206.24 30 205 28.93c3.12-9.2 2.73-16.7-.56-24.5-.39.89-3.43 8.38-8.29 17.75a125.23 125.23 0 0 0-134.79-4.82c-3.87-9.6-2.23-13.94-2.23-13.94-7.79 2.45-10.66 9.52-8.32 20.94-1.12.83-2.22 1.68-3.31 2.55l-1.87-3.24a16.07 16.07 0 0 0-1.77 6.23q-3.74 3.2-7.26 6.71a125 125 0 0 0-1.88 174.85L29.84 215h-.05a1.74 1.74 0 0 0-.57.77l-4.44 8.63a1.11 1.11 0 0 0 .53 1.52c.29.13 7.33 3.27 23.85 2.19 1.71-.11 3.34-.17 4.91-.18A125 125 0 0 0 213.39 36.61zm-9.2-5.51q1.19 1 2.37 2.05A123.61 123.61 0 0 1 187.35 62l-1-1c8.86-12.19 14.65-21.74 17.84-29.9zM187.4 186.64h.74a5.81 5.81 0 0 1-3.48 2.86c-.34.06-.69.1-1.06.13-4.77-.19-14.41-2.15-23.22-7.24a2.55 2.55 0 0 1 1.8-2.25 92.77 92.77 0 0 0 14.05 3.73h-.13q5.75 1.7 11.3 2.77zm-59.14 9.87a12.76 12.76 0 0 1 1.58-2.23l2.19.16c.34.86.52 2 .93 3.21l-3.86-.28a6.24 6.24 0 0 0-.84-.86zm5.38-2c-.12-.1-.24-.2-.36-.32l-.35-.38c-.82-.93-1.66-1.85-2.88-1.19l-1 1.53v.38l-1.67 1.74a.69.69 0 0 0-.25.41.48.48 0 0 0 .16.37c.09.07.14.14.23.21a5 5 0 0 1 1.62 2.35 8.71 8.71 0 0 1 .34 2.22c-.42-1-1.05-1.83-1.73-1.83h.25v-.4a1.68 1.68 0 0 0-.52-.26h-.1l-.39-.17h-.12l-.3-.11-.4-.11a.55.55 0 0 0-.37 0 5.81 5.81 0 0 0-3.11 3.37c0 .11-.07.21-.1.32a4.78 4.78 0 0 0-.11.5 3.25 3.25 0 0 1-.19-.44 3.7 3.7 0 0 1-.12-.43 5.65 5.65 0 0 1 1.19-4.21.54.54 0 0 0 0-.55.54.54 0 0 0-.44-.26h-.53c-3.54 0-6 1.13-7.31 3.37a3 3 0 0 1 .34-1.7c.92-1.77 3.79-3.24 8.77-4.49a.54.54 0 0 0 .21-.11 18.91 18.91 0 0 0 4.5-5.14 8.68 8.68 0 0 0 .92-2.75c.13-.64.23-1.29.31-1.89 0-.2 0-.39.07-.57.11-1 .16-1.73.16-1.73s.53-3.43.75-5.45h.14l.57 3.13 3-4.21.13.05-.71 4.53 3.15-3.9-.61 4.27 3.45-3 .12.08-1.3 3.6 4.35-1.6.06.13a37.7 37.7 0 0 0-5.21 3.41l-.73.6a15.1 15.1 0 0 0-2.89 3.13 5.46 5.46 0 0 0-1 4.43 4.44 4.44 0 0 0 1 1.77l.26.27.05.05.28.25c-.09-.3-.17-.6-.25-.91 0-.13-.06-.26-.09-.39a18 18 0 0 1-.4-3.65 5.37 5.37 0 0 1 3.38 0 8.43 8.43 0 0 0 1.23 5.63c.11.18.24.37.37.55 2.05 2.86 6 5.42 11.85 8.34-8.35-.55-13.52-3.5-15.68-8.56a1.34 1.34 0 0 1-.9.24 1.75 1.75 0 0 1-1.1-.51zM126.1 200a3.49 3.49 0 0 1 2.54 2.74l-4.86-.35a4.7 4.7 0 0 1 2.32-2.39zm-8.85-7.86c-.81-3-2.12-3.37-5-4.1l-.56-.14a11.79 11.79 0 0 0-2.25-.23 8 8 0 0 0-5.39 1.94l-.37.33c-.17.16-.33.32-.49.49q0-.24.1-.46.06-.22.13-.43c.63-1.73 2.09-2.73 4.41-3l.58-.06a.54.54 0 0 0 .24-1 7.51 7.51 0 0 0-.65-.48l-.16-.08q-.3-.14-.6-.24l-.27-.08-.39-.1-.54-.09h-.19a6.11 6.11 0 0 0-3.44.71c1.49-1.94 2.72-1.76 4.54-1.5a14.79 14.79 0 0 0 2.73.2c2.65-.1 6.55-3.63 9.49-8.59a18.23 18.23 0 0 0 2.16-6.36 27.68 27.68 0 0 0 6.79 3.79 28 28 0 0 0-6 4.72 5.61 5.61 0 0 0-1.33 2.94c0 .17 0 .35-.05.52v.16a9.14 9.14 0 0 0 .33 2.86c.08.29.17.58.26.84-1.55-1.37-2.84-1.91-3.91-1.66a3.19 3.19 0 0 0-2 2.34c0 .12-.08.24-.12.37s-.1.33-.14.51a.54.54 0 0 0 .13.49l.48.54.4.49c1.77 2.22 1.54 3.56 1.08 4.33zm-1.11 0a72 72 0 0 0-10.5-2.35 7.89 7.89 0 0 1 5.86-.86l.53.14c2.61.66 3.49.93 4.11 3.07zm-49.63-3.44A86.38 86.38 0 0 1 49.78 82.27c4 8.29 10.84 15.89 19.48 24.15a100.72 100.72 0 0 1-17.32-11.8A47.19 47.19 0 0 0 70 117a14.26 14.26 0 0 1-8.06-1.2q3.19 9.54 10 13.31l-6.41-.3q3.29 7.92 10.47 10.69l-6.75-.6a14.48 14.48 0 0 0 11.4 6.41l-4.5 2.7c3.15 3 6 5.25 11.51 4.35l-3.75 3.11a21.21 21.21 0 0 0 15.09 1.8L94.73 161q7.51 1.89 13.31-.9l-3.45 4.05 10.83-1.15a28.52 28.52 0 0 1-3.47-9.92c-.73-6-2.64-13.28-5.56-10.25-2.44 2.52-3.56 3.92-8.74 3.81l7.28-7.57q-8.9-.34-13.28 9.47-6.42-7.87 1.32-11.08-.7-3.32 2-2.63s1-7.29 6.51-10.31a6.69 6.69 0 0 1 3-.67c5 0 13.56 5.37 20.82 10.1 2.3 1.5 8.07 5 11.33 6.94a9.8 9.8 0 0 0-2.68-.24l2.2 5.86q-2.09-3.35-5.27-3.51l3.07 4.83-4.1-2 3.07 7-6.69-3.37 1.76 6.25-5.12-3.33 1.17 6.55-6.29-4.64 2.05 7.72-3.65-3.01.13 4.95a30.85 30.85 0 0 0 4.11 4.15 17.68 17.68 0 0 1-2.12 6.59 28.18 28.18 0 0 1-3.12 4.29c-1.33-.08-2.76-.11-4.31-.08a170.87 170.87 0 0 1-28-1.4 1.11 1.11 0 0 0-1 .15zM53.18 76.81q.83-1.24 1.71-2.44a175.28 175.28 0 0 0 17.22 18.45 101.79 101.79 0 0 1-18.93-16.01zm101.1 125.65q-1.08-.4-2.07-.86a21.3 21.3 0 0 1-2.35-1.29l-.13-.09q-.49-.32-1-.66l-.11-.08c-.34-.25-.67-.51-1-.79a18.83 18.83 0 0 1-3.05-3.33 21.85 21.85 0 0 1-1.46-2.34 27.24 27.24 0 0 1-1.5-3.28c1.81-.72 2.78-.72 5.31-.12 3.21 3.57 6.02 7.38 7.35 12.84zm3.2-64.94v1.4c0 2.8-5.4 11-5.63 11.36l-.13-.06c0-.13 3.14-13.33 3.47-15.62a13.88 13.88 0 0 1 1.14-3.27 58.11 58.11 0 0 0 3.4-10c1.95-7.87.56-12.28-.66-14.91-.42-.91-.07-2.49 1-4.67a28.36 28.36 0 0 1 1.78-3l.15-.22v.27s-.17 2.18-.33 5.12a21.14 21.14 0 0 0 1 5.73 65 65 0 0 1 1.53 7.56c.58 4.44-1.75 8.51-3.63 11.77a28.77 28.77 0 0 0-2 3.88c-1.16 3.08-1.15 3.32-1.1 4.65zm-15.92-52.36c-15.26 13.61-11.4 25.27-10.8 27.67.62.94 10.85 5.91 5.54 25.88-3.35-2-7.74-4.65-10.08-6.17-7.87-5.13-16.78-10.94-21.89-10.35a10.86 10.86 0 0 0-4.11 1.31c-9.22-7.17-8.75-15.31-3.83-22.34 5.25-7.5 3.26-16.31 2.51-20.51-.62-3.46-4.68-13.9-16.47-31a86.35 86.35 0 0 1 91.85 4.21C165 63 156.73 71.64 141.56 85.16zm-23.8 98.9c.56-.14 1.85.08 4.36 2.85-1.9-.54-3.79-1-5.59-1.35a2.18 2.18 0 0 1 1.23-1.5zm5.26-5.94a28.86 28.86 0 0 1 6.45-5l.38.13a65 65 0 0 1-.65 10.35 16.51 16.51 0 0 0-7.2-3.6 4.46 4.46 0 0 1 1-1.88zm30.83 16.49l-.73-1c-1.63-2.24-3.2-4.32-4-4.69a4.69 4.69 0 0 1 3.74-1.4l16.2 11.67a4 4 0 0 1-2.63 1.46 14.85 14.85 0 0 1-3 .33 8.22 8.22 0 0 1-3.44-.67 20.68 20.68 0 0 1-6.14-5.7zm1.44-8.74a2.81 2.81 0 0 1 .33-.54 4 4 0 0 1 1.66-1.19h.08l.7-.28c.68.6 1.36 1.17 2 1.71h.08c5.45 4 11.94 6.29 18.19 7.92-.4 1.18-1.52 1.81-3 2.17a11.31 11.31 0 0 1-4.61-.78c-7.04-3.17-13.14-6.72-15.44-9.01zm8.55-7.94a4.64 4.64 0 0 1 2.7-2.85q11.07 2.23 27.22 1.8a6.49 6.49 0 0 1-.22.87q-1.4 1.81-2.88 3.54a12 12 0 0 1-2.3 1.14 70.25 70.25 0 0 1-24.53-4.5zm20.06-4.35c-13.16-.15-24-10.31-24-10.31q7.54-1.73 11.25-5.25l-4.5-2.7q8.37-.7 12.56-7.31l-5.7-.45q7.76-2.48 10.35-8.66l-6.9 1.16a23 23 0 0 0 9.9-10.46l-6.6.45a21.83 21.83 0 0 0 9.41-13.16l-9 3.6q17.64-10.39 25.66-24.81a86.41 86.41 0 0 1-10 78.14c-2.33-.23-6.24-.17-12.44-.24zm-5.26-102.33c2.28-3 4.41-5.79 6.4-8.49l.88.86q-3.44 3.83-7.28 7.63zm21.71 23.21a70.71 70.71 0 0 1-15.56 12 137.32 137.32 0 0 0 18.47-18.29q.5 1.06 1 2.13c-1.21 1.29-2.5 2.7-3.9 4.17zm-16.31 0a180.31 180.31 0 0 0 14.12-15.6q.64 1 1.26 2.05A197 197 0 0 1 184 94.47zm3.75-18.71q2.4-2.52 4.53-5l.32.39c-2.76 2.72-4.84 4.61-4.84 4.61zM125 2.17a121.94 121.94 0 0 1 70.12 21.95c-5 9.4-11.69 20.29-19.3 28.24a88.52 88.52 0 0 0-94.65-4.43c-2.21-3.14-4.66-6.48-7.4-10a94.8 94.8 0 0 1-11.55-18.56A122.07 122.07 0 0 1 125 2.17zM51.35 26.68c2 7.88 6.24 17.62 12.85 29.17l-15.6-27q1.4-1.13 2.75-2.17zm-7.44 6.06c.54 5.61 3.57 12.88 9.08 25.51a64.4 64.4 0 0 1-12.25-22.62q1.56-1.48 3.17-2.89zM2.17 125a122 122 0 0 1 36-86.86q1-1 2-1.91-2.24 15.95 13.33 36.36-.92 1.25-1.8 2.53a59 59 0 0 1-5.77-8.06 37.12 37.12 0 0 0 2.77 12.77A88.53 88.53 0 0 0 64.71 190l-28.2 20.2A122 122 0 0 1 2.17 125zM49 225.9c-12.28.81-19.16-.81-21.67-1.59l3.17-6.17a82 82 0 0 0 25.22 1.17c13.59-1.51 24.94 4.31 27.23 6a.83.83 0 1 0 1-1.36c-2.4-1.72-14.27-7.82-28.39-6.25a80.8 80.8 0 0 1-24.17-1l51.44-36.86a177.82 177.82 0 0 0 28.08 1.39h2.06a6.23 6.23 0 0 1-3.27 1.62 13.65 13.65 0 0 1-2.54-.19c-2-.3-3.86-.55-5.9 2.41a1.11 1.11 0 0 0-1-.76L79.94 183a1.11 1.11 0 1 0-.13 2.22l20.32 1.23h.25l-.06.11a.54.54 0 0 0 .14.68l.11.09a.54.54 0 0 0 .69 0 6.58 6.58 0 0 1 3.55-1.78 1.11 1.11 0 0 0 .46.59 5.28 5.28 0 0 0-2.89 3.3c-1.59-.15-2.56-.17-2.67-.17a1.11 1.11 0 0 0 0 2.23s.89 0 2.37.16v.57a.54.54 0 0 0 1 .29l.13-.2c.12-.18.24-.34.36-.51a69.63 69.63 0 0 1 12.34 2.61 1.09 1.09 0 0 0 1.33-.61.54.54 0 0 0 .15-.1l.1-.09c1.12-1.07 1.92-2.83.33-5.48 1.41.32 2.86.68 4.29 1.1a1.11 1.11 0 0 0 1.21-1.73l.12-.09a.54.54 0 0 0 .13-.72 12.87 12.87 0 0 1-1.33-3.11 9.19 9.19 0 0 1-.24-1.2c3.74 1.06 5.72 2.6 6.36 3.62a1.1 1.1 0 0 0 .47.44l-.17 1c-.26 1.57-2.58 4.06-4.82 5.92-5.3 1.35-8.27 2.94-9.35 5a4.47 4.47 0 0 0-.09 3.83l.07.19a.56.56 0 0 0 .51.35.54.54 0 0 0 .5-.36l.07-.19c.88-2.49 3-3.8 6.44-3.9a6.27 6.27 0 0 0-.89 3.89l-1.8-.18a1.11 1.11 0 0 0-.16 2.22l3 .22c.11.12.21.24.32.34l.13.13a.54.54 0 0 0 .91-.37l5.37.39a.54.54 0 0 0 .47.55h.21a.54.54 0 0 0 .53-.41V205l7 .51h.08a1.11 1.11 0 0 0 .08-2.22l-6.78-.49a9.16 9.16 0 0 0-.22-3.16l3.82.26c1.1 1.64 3 3.22 6.6 4.3l-.6-1.8c.67.45 1.37.91 2.09 1.35a1.11 1.11 0 0 0 0 2.19l19.15 3.08h.18a1.11 1.11 0 0 0 .18-2.21l-3.91-.63a34.46 34.46 0 0 0 9.1-3.07 80.44 80.44 0 0 0 8.41-5.15 15.8 15.8 0 0 0 9.38-3.93l-2.92-1 .83-.7q7-.48 10.84-5.47l2.88.19-42.89 40.74-41.67-6a50.25 50.25 0 0 0-9.14-.94c-6.8-.07-11.91 1.35-15.17 4.22a.84.84 0 0 0 1.11 1.25c7.07-6.24 22.71-2.93 22.87-2.89l42.56 6.12 43.56-41.37a.84.84 0 0 0 .2-.91c.41.11.91.26 1.37.44a3.42 3.42 0 0 1 2.07 1.84 5.71 5.71 0 0 1-.1 3.8l-44.38 42.83c-2.07-.36-9.5-1.63-16.19-2.58l-.81-.12c-7.83-1.12-19.67-2.8-31-4.67a24.84 24.84 0 0 0-4.07-.33 30.93 30.93 0 0 0-16.37 5.07 3.37 3.37 0 0 1-2.71-.18 33.21 33.21 0 0 0-9-4.43c-5.45-1.8-14.66-3.88-27.51-3.04zm162.85-14A122.87 122.87 0 0 1 58.05 228a62.22 62.22 0 0 1 17.62 3.09 31.58 31.58 0 0 1 8.51 4.14 5.54 5.54 0 0 0 4.78.48 1.12 1.12 0 0 0 .36-.17c.09-.06 8.72-6.17 19-4.48 11.31 1.88 23.16 3.56 31 4.68l.81.12c7.79 1.11 16.59 2.65 16.68 2.67h.19a1.11 1.11 0 0 0 .77-.31l45-43.4a1.11 1.11 0 0 0 .25-.36 8.14 8.14 0 0 0 .18-5.72 5.6 5.6 0 0 0-3.33-3.06 19.61 19.61 0 0 0-2.49-.73h-.19l-6.59-.36c.45-.49.9-1 1.34-1.49 3-2 6.91-5 7.37-6.84a1.47 1.47 0 0 0-.64-1.95 88.57 88.57 0 0 0 9.08-81.23 52.13 52.13 0 0 0 4.11-12s-2.25 3-6.05 7.36c-.34-.75-.69-1.5-1.06-2.24q9.63-12.53 10.25-23.46a128.32 128.32 0 0 1-14 16.59q-.7-1.15-1.42-2.29 15.47-20.24 12.73-34.37a133 133 0 0 1-8.7 15.71 84.51 84.51 0 0 1-9.44 11.16l-.44-.54q13.57-16.78 15.18-33.71c1 .93 2 1.87 2.94 2.84a122.83 122.83 0 0 1 .01 173.73z"/>
  <path fill="#273456" fill-rule="evenodd" d="M42.85 180.4a.42.42 0 0 1-.35-.23.92.92 0 0 1-.08-.18c0-.07-.06-.15-.09-.23l-.08-.37a5.85 5.85 0 0 0-.34-1.1 6.07 6.07 0 0 0-.52-1 4.42 4.42 0 0 0-2.9-2.24 3.85 3.85 0 0 0-2.76.5 3.42 3.42 0 0 0-1.54 2.2 5.34 5.34 0 0 0 0 1.76l.12 1.49a11.82 11.82 0 0 1 .13 2.54 1.76 1.76 0 0 1-2.1 1.33 2 2 0 0 1-1.22-.95 2.9 2.9 0 0 1-.38-2.4A5.46 5.46 0 0 1 32 179.2l-.27-.42-3.3 2.15.29.45a1.51 1.51 0 0 1 .49-.09.47.47 0 0 1 .37.26 7.18 7.18 0 0 1 .33 1.06 6.21 6.21 0 0 0 .8 1.78 3.57 3.57 0 0 0 2.55 1.82 3.82 3.82 0 0 0 2.59-.55 3.14 3.14 0 0 0 1.37-1.74 7.75 7.75 0 0 0 .1-3l-.15-1.3a6.73 6.73 0 0 1-.06-1.7 1.73 1.73 0 0 1 .81-1.18 2.08 2.08 0 0 1 1.4-.29 2.17 2.17 0 0 1 1.48 1.13 3.22 3.22 0 0 1 .46 2.4 5.57 5.57 0 0 1-1.69 2.8l.28.44 3.76-2.44-.28-.44a1.54 1.54 0 0 1-.48.06zm-16.47-7.49l7.93-3.7a1.11 1.11 0 0 1 1.17 0 2.58 2.58 0 0 1 .66.91l.42-.19-4.47-9.58-3.72.93.21.46a5.56 5.56 0 0 1 3.1.7 5.33 5.33 0 0 1 1.8 2.28 2.42 2.42 0 0 1 .33 1.19.91.91 0 0 1-.59.6l-4 1.85a2.86 2.86 0 0 1-.33-2.21 3.84 3.84 0 0 1 1.63-1.64l-.19-.42-5.54 2.58.21.42a4.37 4.37 0 0 1 2.3-.09 2.84 2.84 0 0 1 1.39 1.66l-3.8 1.77a.83.83 0 0 1-.71.09 2 2 0 0 1-.61-.89 5.08 5.08 0 0 1-.68-3 3.9 3.9 0 0 1 1.67-2.08l-.19-.4-3.31 1.54 4.41 9.45.42-.19a2.78 2.78 0 0 1-.27-1.07 1.09 1.09 0 0 1 .76-.97zm3.01-18.07a2.51 2.51 0 0 1 .46 1l.44-.12-1.57-5.88-.44.12a2.55 2.55 0 0 1 .07 1.06 1.11 1.11 0 0 1-.9.78l-3.42.92-.56-.32 3.12-4.24a3.61 3.61 0 0 1 .39-.46.65.65 0 0 1 .26-.17.31.31 0 0 1 .38.21 6.91 6.91 0 0 1 .36 1.06l.44-.12-1.57-5.86-.44.12a3 3 0 0 1 .05.54.85.85 0 0 1-.18.41l-5.17 7.1a38.77 38.77 0 0 1-4.1-2.51 4.48 4.48 0 0 1-1.37-2l-.44.12 1.35 5.06.44-.12a6.17 6.17 0 0 1-.17-1.21.42.42 0 0 1 .34-.42.72.72 0 0 1 .44 0 5.11 5.11 0 0 1 .69.35L23.1 153l-3.74 1a1.77 1.77 0 0 1-1.35 0 2.39 2.39 0 0 1-.67-1.13l-.44.12 1.58 5.9.44-.12a2.78 2.78 0 0 1-.07-1.11 1.11 1.11 0 0 1 .9-.73l8.46-2.27a1.11 1.11 0 0 1 1.18.18zm-9.2-15.65a6.22 6.22 0 0 0 5.75-7 6.21 6.21 0 0 0-7-5.83 6.51 6.51 0 0 0-3.59 11.42 6.42 6.42 0 0 0 4.84 1.41zm-6.46-5.89a2.61 2.61 0 0 1 1.27-2.45 8.73 8.73 0 0 1 4.26-1.24 11.81 11.81 0 0 1 3.43.11q2.47.55 2.65 2.57t-2.16 3a11.76 11.76 0 0 1-3.36.7 11.8 11.8 0 0 1-3.4-.1q-2.5-.55-2.68-2.59zm-.07-13.86a1.1 1.1 0 0 1 1.11-.42l8.72.76a1.11 1.11 0 0 1 1 .63 2.64 2.64 0 0 1 .1 1.07h.46l.95-10.39-4-1.09v.53a5.69 5.69 0 0 1 2.63 2.15 4.94 4.94 0 0 1 .48 2.79 2.61 2.61 0 0 1-.3 1.21.87.87 0 0 1-.82.24l-8.51-.74a1.74 1.74 0 0 1-1.32-.48 2.87 2.87 0 0 1-.18-1.5h-.46l-.55 6.3h.46a2.79 2.79 0 0 1 .23-1.06zM26 105a1.35 1.35 0 0 1 .32 1.16l.45.11.89-3.58-.44-.11a3.52 3.52 0 0 1-.33.87.62.62 0 0 1-.67.37 3.66 3.66 0 0 1-.93-.48l-1.24-.84 1-3.94 1.17-.18.66-.08a2.39 2.39 0 0 1 .66 0 .55.55 0 0 1 .5.42 4 4 0 0 1-.13 1.16l.44.12 1.42-5.68-.45-.11a1.07 1.07 0 0 1-.66.82 13.14 13.14 0 0 1-2.25.49l-10.2 1.62-.12.49 8.64 6.3A8.18 8.18 0 0 1 26 105zm-6.25-5.53v-.15l4.48-.67-.85 3.41zm1.16-14.77a1.13 1.13 0 0 1 1.14 0l8 3.56a1.11 1.11 0 0 1 .77.89 2.5 2.5 0 0 1-.23 1l.41.22 2.49-5.59-.42-.19a2.79 2.79 0 0 1-.6.9 1.1 1.1 0 0 1-1.21.06l-3.81-1.7 1.75-3.94 3.8 1.71a1.1 1.1 0 0 1 .76.89 2.56 2.56 0 0 1-.25 1.09l.42.19 2.5-5.62L36 78a2.53 2.53 0 0 1-.6.86 1.1 1.1 0 0 1-1.2.05l-8-3.56a1.1 1.1 0 0 1-.76-.87 2.86 2.86 0 0 1 .23-1.09l-.42-.19-2.5 5.63.44.17a3 3 0 0 1 .66-.94 1.11 1.11 0 0 1 1.17 0l3.42 1.52-1.75 3.94L23.26 82a1.11 1.11 0 0 1-.77-.9 2.87 2.87 0 0 1 .25-1.1l-.42-.19-2.48 5.59.42.19a3.05 3.05 0 0 1 .65-.89zM219 86.11a2.79 2.79 0 0 1-.25-1.06 1.1 1.1 0 0 1 .79-.93l3.84-1.63 1.69 4-3.84 1.63a1.11 1.11 0 0 1-1.17 0 2.57 2.57 0 0 1-.63-.93l-.42.18 2.42 5.63.42-.18a2.52 2.52 0 0 1-.23-1 1.11 1.11 0 0 1 .78-.92l8.06-3.42a1.1 1.1 0 0 1 1.16 0 2.87 2.87 0 0 1 .64.91l.42-.18-2.41-5.67-.42.18a2.93 2.93 0 0 1 .24 1.12 1.11 1.11 0 0 1-.79.86l-3.45 1.46-1.68-4 3.45-1.46a1.11 1.11 0 0 1 1.18.05 2.85 2.85 0 0 1 .63.93l.42-.18-2.39-5.64-.42.18a3 3 0 0 1 .2 1.08 1.12 1.12 0 0 1-.78.82l-8.06 3.42a1.11 1.11 0 0 1-1.18 0 2.49 2.49 0 0 1-.59-.86l-.42.18 2.39 5.64zm4.78 11.61a1.36 1.36 0 0 1-.81-.89l-.45.1.83 3.6.45-.1a3.5 3.5 0 0 1-.11-.93.62.62 0 0 1 .43-.64 3.64 3.64 0 0 1 1 0l1.48.18.91 4-1 .69-.55.37a2.27 2.27 0 0 1-.6.28.56.56 0 0 1-.63-.14 4.06 4.06 0 0 1-.41-1.09l-.45.1 1.32 5.71.45-.1a1.07 1.07 0 0 1 .22-1 13 13 0 0 1 1.79-1.46l8.35-6.07v-.55l-10.55-1.69a8.29 8.29 0 0 1-1.67-.37zm8.08 2.09v.15l-3.69 2.63-.79-3.43zm-3.93 14.87a1.8 1.8 0 0 1-1.32-.29 2.09 2.09 0 0 1-.39-1.24h-.46l.21 6.11h.46a1.32 1.32 0 0 1 1.6-1.65l3.54-.12v.48l-5.52 3.95.13 3.7h.43a1.53 1.53 0 0 1 .06-.42.78.78 0 0 1 .27-.33l5-3.82a4.16 4.16 0 0 0 .87 1.73 2.91 2.91 0 0 0 5-1.26 9.32 9.32 0 0 0 .28-2.94l-.2-5.82h-.46a2.51 2.51 0 0 1-.25 1.2 1.73 1.73 0 0 1-1.35.45zm9.42 2.83a1.64 1.64 0 0 1 .22.95 1.86 1.86 0 0 1-1 1.87 3.91 3.91 0 0 1-1.65.35 2.44 2.44 0 0 1-2.22-.69 5.24 5.24 0 0 1-.58-2.52l4.6-.16a.72.72 0 0 1 .63.2zm-10.28 13.11a1.36 1.36 0 0 1-.48-1.11h-.46l-.39 3.67h.46a3.47 3.47 0 0 1 .2-.91.62.62 0 0 1 .62-.46 3.63 3.63 0 0 1 1 .34l1.34.66-.42 4-1.14.34-.64.17a2.4 2.4 0 0 1-.66.07.56.56 0 0 1-.55-.34 4.09 4.09 0 0 1 0-1.17h-.46l-.61 5.83h.46a1.07 1.07 0 0 1 .54-.9 13 13 0 0 1 2.16-.79l9.88-3 .05-.5-9.43-5a8.28 8.28 0 0 1-1.47-.9zm3 2.54l4 2.06v.15l-4.34 1.28zm4.48 16.84a1.79 1.79 0 0 1-1.32-.06l-7.68-2.2a1.9 1.9 0 0 1-1.15-.65 1.87 1.87 0 0 1 0-1.25l-.44-.13-1.66 5.79.44.13a2 2 0 0 1 .68-1.11 1.82 1.82 0 0 1 1.35 0l3.24.93q-.45 1.55-.6 2.36a5.61 5.61 0 0 0-.06 1.69 3.28 3.28 0 0 0 .78 1.84 3.18 3.18 0 0 0 1.48.92 2.79 2.79 0 0 0 2.81-.45 6.7 6.7 0 0 0 1.69-3.17l1.61-5.6-.44-.13a2.25 2.25 0 0 1-.73 1.09zm-1 4.14a1.65 1.65 0 0 1-1.17 1.32 4.16 4.16 0 0 1-2-.15 2.63 2.63 0 0 1-2-1.47 4.63 4.63 0 0 1 .24-2.17l4.67 1.34a.51.51 0 0 1 .41.36 1.67 1.67 0 0 1-.12.78zm-12.76 5.41a1.36 1.36 0 0 1-.09-1.2l-.42-.19-1.56 3.35.42.19a3.44 3.44 0 0 1 .49-.8.62.62 0 0 1 .73-.23 3.62 3.62 0 0 1 .82.65l1.06 1.06-1.72 3.68h-1.85a2.32 2.32 0 0 1-.64-.14.56.56 0 0 1-.41-.5 4 4 0 0 1 .35-1.11l-.42-.19-2.47 5.31.41.19a1.07 1.07 0 0 1 .8-.68 13.15 13.15 0 0 1 2.3 0l10.32.36.21-.46-7.28-7.83a8.25 8.25 0 0 1-1.05-1.46zm5.08 6.62l-.06.14-4.53-.2 1.49-3.19zm-3.36 13.73q-.24.07-1.47.24l-7.1-4.79a1.67 1.67 0 0 1-.72-.83 1.76 1.76 0 0 1 .41-1.29l-.38-.26-2.29 3.4.38.26a1.74 1.74 0 0 1 1.33-.89 2.2 2.2 0 0 1 1.1.47l5.89 4-.07.1-12.47 1.19-.28.42 8.83 6a1.42 1.42 0 0 1 .73.83 2.59 2.59 0 0 1-.32 1.16l.38.26 2.18-3.23-.38-.26a1.94 1.94 0 0 1-1.15.85 2 2 0 0 1-1.27-.45l-4.46-3v-.07l9.8-.89 2.14-3.18-.38-.26a1 1 0 0 1-.43.22zM97.1 15.84a1.73 1.73 0 0 1 .92 0 1 1 0 0 1 .52.35 4.45 4.45 0 0 1 .35 1.25l1.69 8.7a4.78 4.78 0 0 1 .15 1.24 1.16 1.16 0 0 1-.36.59 1.8 1.8 0 0 1-.84.35l-.44.09.07.36 5.92-1.15a10.91 10.91 0 0 0 1.85-.48 9 9 0 0 0 2.13-1.14 5.87 5.87 0 0 0 1.41-1.55 6.09 6.09 0 0 0 .78-2.17 7.74 7.74 0 0 0-1.67-6.1 5.71 5.71 0 0 0-3.13-1.87 9.67 9.67 0 0 0-3.94.1l-5.92 1.15.07.36zm7.06-.67a3.48 3.48 0 0 1 1.94 1.3 8.93 8.93 0 0 1 1.59 3.91 7.7 7.7 0 0 1-.26 4.89 3 3 0 0 1-2.27 1.59 1.62 1.62 0 0 1-.79 0 .57.57 0 0 1-.32-.23 3.68 3.68 0 0 1-.27-1l-2-10.31a6.43 6.43 0 0 1 2.39-.14zm10.05-2.08a1.71 1.71 0 0 1 .91.14 1 1 0 0 1 .48.41 4.43 4.43 0 0 1 .2 1.28l.62 8.84a4.12 4.12 0 0 1 0 1.26.9.9 0 0 1-.36.5 1.87 1.87 0 0 1-.93.27h-.44v.37l7-.49v-.37h-.45a1.88 1.88 0 0 1-.92-.13 1.09 1.09 0 0 1-.48-.43 4.43 4.43 0 0 1-.2-1.28L119 14.7a4.12 4.12 0 0 1 0-1.26 1 1 0 0 1 .37-.5 1.85 1.85 0 0 1 .93-.27h.45v-.37l-7 .49v.37zm13.6 12.44a3.83 3.83 0 0 1-1.3-.33.9.9 0 0 1-.4-.86 2.94 2.94 0 0 1 .35-1.06l.66-1.28 4.74.33.6 1.72q.23.67.25.76a1.21 1.21 0 0 1 0 .37.53.53 0 0 1-.25.44 2 2 0 0 1-1.12.14h-.27v.37l6.5.46v-.37a1.56 1.56 0 0 1-.93-.42 6.71 6.71 0 0 1-1-2.05l-4.07-11.36h-.19l-5.55 10.38a8.09 8.09 0 0 1-1.29 2 2 2 0 0 1-1.23.51v.37l4.47.31zm2.09-8.71l1.68 4.77-4.06-.28zM144 27.58l-.31-.08a2 2 0 0 1-1.09-.69 1.9 1.9 0 0 1-.13-1.65l2.07-8.31 6.12 13.08.34.07 2.71-10.88a4 4 0 0 1 .48-1.26 1.14 1.14 0 0 1 .58-.44 3.32 3.32 0 0 1 1.19 0l.09-.36-4.37-1.06-.09.36a1.92 1.92 0 0 1 1.42.93A2.75 2.75 0 0 1 153 19l-1.4 5.62-4.43-9.71-4.63-1.16-.09.36a2.28 2.28 0 0 1 .87.41 2.61 2.61 0 0 1 .56.87l.12.37-2.27 9.24a2.14 2.14 0 0 1-.79 1.37 2.16 2.16 0 0 1-1.61.07l-.09.36 4.63 1.15z"/>
</svg>
