<svg xmlns="http://www.w3.org/2000/svg" viewBox="0 0 80.77 35.94">
  <path fill="#202f67" fill-rule="evenodd" d="M55.04 29.34h7.37V16.98h11v12.36h7.37V0H73.4v10.55h-11V0h-7.36v29.34M12.83 17.42s-4.65-1.08-6-1.44C4.63 15.4 0 14.12 0 9.5 0 3 6.7 0 11.4 0c5.32 0 12.28 2.52 12.28 9.13h-6.34c0-2.9-3.36-3.52-5.55-3.52C9.9 5.64 7 6.7 7 8.5c0 1.52.64 2.52 6.2 3.75 3.92.85 10.32 2.13 10.43 7.93s-5.48 9.3-11.35 9.27C7 29.4 0 26.9 0 20.3h6.32c.1 2.9 3.25 3.52 5.57 3.52 1.86 0 4.52-.76 4.74-2.6.16-1.4-.32-2.94-3.8-3.78zM0 34.6l.77-.1a1 1 0 0 0 .28.58.86.86 0 0 0 .58.18.9.9 0 0 0 .58-.16.5.5 0 0 0 .2-.38.35.35 0 0 0-.07-.24.64.64 0 0 0-.33-.16l-.6-.18a2.16 2.16 0 0 1-.9-.4A1 1 0 0 1 .14 33a1 1 0 0 1 .17-.6 1.08 1.08 0 0 1 .5-.4 2 2 0 0 1 .78-.14 1.66 1.66 0 0 1 1.12.33 1.15 1.15 0 0 1 .4.86h-.8a.67.67 0 0 0-.22-.44.8.8 0 0 0-.5-.13.9.9 0 0 0-.54.13.3.3 0 0 0-.13.24.3.3 0 0 0 .13.24 2.1 2.1 0 0 0 .73.27 3.76 3.76 0 0 1 .86.28 1.08 1.08 0 0 1 .44.4 1.23 1.23 0 0 1 0 1.26 1.13 1.13 0 0 1-.53.45 2.25 2.25 0 0 1-.86.14 1.7 1.7 0 0 1-1.2-.3 1.5 1.5 0 0 1-.47-1zM4.38 35.87v-3.94H7.3v.66H5.18v.87h1.98v.66H5.18v1.07h2.2v.67h-3M8.38 35.87v-3.94h.8v1.75l1.6-1.75h1.08l-1.5 1.53 1.58 2.4H10.9l-1.08-1.84-.64.66v1.2h-.8M12.53 33.92a2.5 2.5 0 0 1 .18-1 1.87 1.87 0 0 1 .38-.54 1.55 1.55 0 0 1 .5-.38 2.17 2.17 0 0 1 .85-.16 1.85 1.85 0 0 1 1.4.54 2.4 2.4 0 0 1 0 3 1.84 1.84 0 0 1-1.4.54A1.86 1.86 0 0 1 13 35.4a2 2 0 0 1-.52-1.48zm.82 0a1.48 1.48 0 0 0 .3 1 1 1 0 0 0 .8.34 1 1 0 0 0 .78-.34 1.5 1.5 0 0 0 .3-1 1.48 1.48 0 0 0-.3-1 1.1 1.1 0 0 0-1.57 0 1.48 1.48 0 0 0-.3 1zM17.33 35.87v-3.9h.8v3.23h1.98v.67h-2.77M25 35.87h-.9l-.33-.87H22.2l-.34.9H21l1.54-3.94h.86l1.6 3.9zm-1.47-1.56L23 32.86l-.53 1.46h1.08zM25.7 35.87v-3.94h.8v1.55h1.56v-1.55h.8v3.94h-.8v-1.72H26.5v1.72h-.8M33.5 31.93H35a2.84 2.84 0 0 1 .75.08 1.32 1.32 0 0 1 .6.37 1.72 1.72 0 0 1 .37.64 2.9 2.9 0 0 1 .13.94 2.6 2.6 0 0 1-.12.84 1.74 1.74 0 0 1-.42.7 1.4 1.4 0 0 1-.55.3 2.4 2.4 0 0 1-.7.1H33.5v-3.95zm.8.67v2.6h.6a2.16 2.16 0 0 0 .47 0 .72.72 0 0 0 .32-.2.83.83 0 0 0 .2-.38 2.58 2.58 0 0 0 .1-.72 2.35 2.35 0 0 0-.08-.7.9.9 0 0 0-.23-.38.76.76 0 0 0-.38-.2 3.63 3.63 0 0 0-.65 0h-.37zM37.76 35.87v-3.94h.8v3.94h-.8M43.47 35.87h-.86l-.34-.87H40.7l-.34.9h-.84l1.54-3.94h.84l1.58 3.94zM42 34.3l-.54-1.45-.53 1.46H42zM44.27 35.87v-3.94h.77l1.62 2.63v-2.63h.74v3.94h-.8L45 33.3v2.57h-.73M51.86 35.87v-3.94h.8v1.55h1.56v-1.55h.8v3.94h-.8v-1.72h-1.56v1.72h-.8M59.76 35.87h-.86l-.35-.87H57l-.33.9h-.86l1.55-3.94h.84l1.57 3.94zM58.3 34.3l-.54-1.45-.53 1.46h1.07zM60.36 35.87v-3.94H62a2.82 2.82 0 0 1 1 .07.9.9 0 0 1 .46.38 1.14 1.14 0 0 1 .17.62 1.06 1.06 0 0 1-.26.73 1.26 1.26 0 0 1-.78.36 1.83 1.83 0 0 1 .4.32 4.4 4.4 0 0 1 .46.64l.48.77H63l-.62-.83a5.4 5.4 0 0 0-.38-.57.6.6 0 0 0-.24-.16 1.28 1.28 0 0 0-.4 0h-.2v1.65h-.8zm.8-2.27h.6a3 3 0 0 0 .7 0 .43.43 0 0 0 .23-.17.5.5 0 0 0 .07-.3.46.46 0 0 0-.1-.32.48.48 0 0 0-.3-.15h-1.2v1zM68.46 35.87h-.86l-.35-.87h-1.57l-.33.9h-.84l1.5-3.97h.84l1.58 3.94zM67 34.3l-.54-1.45-.53 1.46H67zM69.33 35.87v-3.94h1.27a4.64 4.64 0 0 1 .95.06 1 1 0 0 1 .57.38 1.22 1.22 0 0 1 .23.77 1.3 1.3 0 0 1-.13.6 1.1 1.1 0 0 1-.34.4 1.15 1.15 0 0 1-.4.2 4.53 4.53 0 0 1-.84.05h-.52v1.5h-.8zm.8-3.27v1.12h.44a2.06 2.06 0 0 0 .63-.06.52.52 0 0 0 .25-.2.52.52 0 0 0 .1-.3.5.5 0 0 0-.14-.35.55.55 0 0 0-.3-.16 3.84 3.84 0 0 0-.58 0h-.4zM76.83 35.87H76l-.38-.87H74l-.33.9h-.8l1.55-3.94h.84l1.58 3.94zm-1.47-1.56l-.54-1.45-.53 1.46h1.07zM77.64 35.87v-3.94h.77l1.63 2.63v-2.63h.74v3.94h-.8l-1.6-2.57v2.57h-.73M37.15 6.2h-2.93v17.23h2.23c3.9-.08 8.5-.3 8.5-8.73a9.53 9.53 0 0 0-1.54-5.9c-2-2.66-4-2.62-6.24-2.62zm-10.3 23.13V0h9.3C39.73 0 44.33.12 48 3.45c3 2.74 4.18 6.86 4.18 11a19.72 19.72 0 0 1-.75 5.65c-2.7 9.06-10.06 9.22-13.12 9.27H26.86z"/>
</svg>
